<?xml version="1.0" encoding="utf-8"?>
<!-- Generator: Adobe Illustrator 21.1.0, SVG Export Plug-In . SVG Version: 6.00 Build 0)  -->
<svg version="1.1" id="Layer_1" xmlns="http://www.w3.org/2000/svg" xmlns:xlink="http://www.w3.org/1999/xlink" x="0px" y="0px"
	 viewBox="0 0 1114 301.8" style="enable-background:new 0 0 1114 301.8;" xml:space="preserve">
<style type="text/css">
	.st0{clip-path:url(#SVGID_2_);}
	.st1{clip-path:url(#SVGID_4_);fill:url(#);}
	.st2{fill:#294B67;}
	.st3{fill:#B0B788;}
	.st4{fill:#736F33;}
</style>
<path class="st2" d="M341.4,163.6c-17.8,0-31.9-11.6-31.9-31.2c0-19.5,13.9-32.8,33.3-32.8c7.1,0,12.1,2.1,16.2,4.2l2.5-3.6h3.5
	l0.4,23.2h-3.8c-4.4-13.7-9.7-20.1-18.3-20.1c-11,0-17.2,10.1-17.2,27.4c0,19,7.7,27.1,18.7,27.1c9.3,0,14.8-4.7,19.9-12.5l3,1.4
	C363.4,155.9,355.1,163.6,341.4,163.6"/>
<path class="st2" d="M375.8,162.3v-3c1.6-0.1,5.4-0.4,6.6-0.8c2.2-0.8,2.8-2.4,2.8-4.4v-44c0-2-0.6-3.5-2.8-4.4
	c-1.5-0.6-4.9-1.4-6.6-1.5v-3h33.7v3c-1.6,0.1-4.9,0.5-6.6,1.1c-2.2,0.7-2.8,2.4-2.8,4.4v44c0,2,0.7,3.5,2.8,4.4
	c1.1,0.4,4.9,1.2,6.6,1.3v3H375.8z"/>
<path class="st2" d="M473.3,118.2c-1.3-4-5.9-12.6-9.8-13.2c-2.2-0.3-4.6-0.4-6.9-0.4h-1.8v48.6c0,2,0.7,3.7,2.8,4.6
	c1.1,0.4,5.7,1.3,7.4,1.4v3h-35.3v-3c1.6-0.1,6.2-0.5,7.4-1c2.2-0.8,2.8-2.6,2.8-4.6v-49H438c-2,0-4.8,0.2-6.9,0.4
	c-3.9,0.5-8.5,9.2-9.8,13.2H418V101h58.6v17.2H473.3z"/>
<path class="st2" d="M547.4,105.7c-2.6,1.5-4.3,3.2-6.4,6.3c-4.5,6.6-6.6,10.1-12.4,19.5c-3.1,5-3.9,7.9-3.9,12.8v9
	c0,2,0.7,3.7,2.8,4.6c1.1,0.4,5.7,1.3,7.4,1.4v3h-35.3v-3c1.6-0.1,6.2-0.5,7.4-1c2.2-0.8,2.8-2.6,2.8-4.6v-11.2
	c0-3.6-0.4-5.3-2.9-9.7c-4.9-8.5-8.2-14.3-12.4-21.1c-1.9-3-3.9-4.9-6-6.2c-1.6-0.9-4.1-1.3-5.8-1.4v-3h35.7v3
	c-3.1,0.2-9.1,0.2-9.1,2.2c0,1.3,2,5.6,14.1,26.1c11.2-17.6,14.5-23.6,14.5-25c0-2.7-4.3-3-8.4-3.2v-3h23.3v3
	C550.7,104.4,549,104.8,547.4,105.7"/>
<path class="st2" d="M585.4,163.5c-6.1,0-13.3-4.6-13.3-16c0-9.9,8.4-27.4,25.1-27.4c6.1,0,13.4,4.7,13.4,16
	C610.6,145.9,602.3,163.5,585.4,163.5 M595.6,122.8c-9.4,0-15,15.7-15,26.4c0,8.4,3,11.6,6.5,11.6c10.1,0,15.1-15.8,15.1-26.6
	C602.1,125.8,598.8,122.8,595.6,122.8"/>
<path class="st2" d="M659.8,107.9c-1.8,0-5-1-5-3.9c0-1.3,1.2-3,1.4-4.9c-0.2-0.4-1.2-0.6-2-0.6c-5.7,0-10,4.9-13.6,17.7l-1.5,5.5
	h11.3l-1.2,3.6h-11.1c-3,11.3-6.3,25.2-9.3,35c-2.2,6.9-5.4,13.6-10.9,18.1c-4.7,3.9-8.2,5.2-12.6,5.2c-7.1,0-9.1-3.6-9.1-7.2
	c0-2,1.6-4.8,4.7-4.8c1.9,0,4.9,1.1,4.9,4.3c0,1.9-0.8,2.9-2,4.3c0.1,0.4,1.1,0.7,1.8,0.7c6.6,0,10.6-4.9,14.6-18.1
	c4.4-14.4,7.4-27.8,9.9-37.5h-9.5l1.1-3.6h9.5l0.7-2.8c1.9-7.2,4.9-13.2,10.5-18.2c4.2-3.9,8.5-4.9,12.8-4.9c6.2,0,9.2,4,9.2,7.7
	C664.4,104.9,662.8,107.9,659.8,107.9"/>
<path class="st2" d="M742.5,162.3h-58.4v-3c1.6-0.1,5.9-0.5,7.1-1c2.2-0.8,2.8-2.4,2.8-4.4V110c0-2-0.5-3.5-2.8-4.4
	c-1.7-0.7-5.5-1.4-7.1-1.5v-3h54.7v15.6h-3.3c-1.3-4-6.3-11-10.4-11.6c-2.2-0.3-4.6-0.4-7.5-0.4H709v24h6c5,0,6.8-1.6,7.9-2.7
	c1.3-1.3,3.1-5.6,3.3-8h3.3v25.5h-3.3c-0.2-2.6-2.2-7.3-3.3-8.4c-1.2-1.3-3.1-2.7-7.9-2.7h-6v18c0,7.3,1.4,8.2,10.5,8.2
	c4.3,0,10.8,0.1,12.9-2.2c2.8-2.9,7-10.6,8.1-13.3h3.1L742.5,162.3z"/>
<path class="st2" d="M808.8,162.3h-56.8v-3c1.6-0.1,5.9-0.5,7.1-1c2.2-0.8,2.8-2.4,2.8-4.4V110c0-2-0.5-3.5-2.8-4.4
	c-1.7-0.7-5.5-1.4-7.1-1.5v-3h34.2v3c-1.6,0.1-4.9,0.5-6.6,1.1c-2.2,0.7-2.8,2.4-2.8,4.4v40.9c0,7.3,1.5,8.2,10.6,8.2
	c4.3,0,9.4-0.2,11.3-2.2c2.8-2.9,6.4-9.3,8.1-13.5h3.1L808.8,162.3z"/>
<path class="st2" d="M869.7,135.7h-4.3v17.8c0,2,0.7,3.5,2.8,4.4c1.1,0.4,5.1,1.2,6.7,1.3v3h-34.4v-3c1.6-0.1,5.9-0.5,7.1-1
	c2.2-0.8,2.8-2.4,2.8-4.4V110c0-2-0.5-3.5-2.8-4.4c-1.7-0.7-5.5-1.4-7.1-1.5v-3h33.1c15.7,0,23.5,5,23.5,15.2
	C897.1,129.9,883.7,135.7,869.7,135.7 M868.8,104.6h-3.4V132h1.7c10.1,0,14-5.4,14-13.4C881.1,109.5,877.8,104.6,868.8,104.6"/>
<path class="st2" d="M928.3,162.3v-3c3.1-0.2,9.2-1.1,9.2-2.6c0-0.6-0.3-1.4-0.4-2l-5-13H912c-1.1,2.6-2.3,6.4-3.1,8.7
	c-0.6,1.9-0.9,3.8-0.9,5c0,2.7,6.8,3.6,10,3.8v3h-25.7v-3c1.7-0.1,4.4-0.6,6-1.5c2.3-1.3,4-3.2,5.1-6.1
	c6.2-15.4,13.7-34.3,20.6-51.5h7.4c9.3,23.4,17.4,44.8,20.9,53.3c0.7,1.8,1.9,3,4,4.3c1.6,0.9,3.9,1.4,5.7,1.5v3H928.3z
	 M921.9,116.5l-8.2,21h16.5L921.9,116.5z"/>
<path class="st2" d="M994.4,163.6c-9.4,0-14.9-2.9-18.3-4.7l-2.8,4.2h-3.4l-0.6-23h3.3c3.3,8.5,9.9,19.5,20.2,19.5
	c7.2,0,11.7-4.5,11.7-10.3c0-4.8-3.2-8.2-10.1-10.5c-3.9-1.3-8.9-2.8-11.9-4c-7.7-3.1-11.8-9.6-11.8-17.1c0-9.7,8.1-18,21.9-18
	c6.8,0,12.8,2.3,16.1,4.2l2.5-3.6h3.5l0.4,21.7h-3.3c-3.7-9.7-7.9-18.4-17.6-18.4c-5.7,0-9.9,4.2-9.9,9.4c0,4.9,3,8.1,10,10.5
	c3.9,1.3,8.7,2.8,11.9,4c7.2,3,12.2,7.4,12.2,16.9C1018.4,155.4,1008.9,163.6,994.4,163.6"/>
<path class="st2" d="M1061.3,163.9c-17.9,0-33.2-12.3-33.2-31.6c0-20.3,14.9-32.9,33.6-32.9c18,0,33.5,12,33.5,31.8
	C1095.2,149.3,1082.7,163.9,1061.3,163.9 M1061.7,103.4c-10.7,0-16.6,10.5-16.6,28.5c0,15.5,4.8,28.1,16.6,28.1
	c11.7,0,16.5-12.3,16.5-28.4C1078.2,117.4,1074.2,103.4,1061.7,103.4"/>
<polygon class="st2" points="333.6,213.3 321.8,213.3 321.8,220.3 333.2,220.3 333.2,224.5 321.8,224.5 321.8,234.3 333.6,234.3 
	333.6,238.4 317.4,238.4 317.4,209.1 333.6,209.1 "/>
<polygon class="st2" points="345.8,238.4 352,206.9 362,229.7 372.5,206.9 378,238.4 373.5,238.4 370.6,220.7 362,239.8 
	353.5,220.7 350.4,238.4 "/>
<path class="st2" d="M395.9,226.5v11.9h-4.4v-29.3h5c2.5,0,4.3,0.2,5.6,0.5c1.3,0.3,2.4,1,3.3,1.9c1.7,1.6,2.5,3.7,2.5,6.2
	c0,2.7-0.9,4.8-2.7,6.4c-1.8,1.6-4.2,2.4-7.3,2.4H395.9z M395.9,222.4h1.7c4.1,0,6.1-1.6,6.1-4.7c0-3-2.1-4.5-6.3-4.5h-1.5V222.4z"
	/>
<polygon class="st2" points="424.5,209.1 424.5,234.3 433.1,234.3 433.1,238.4 420.1,238.4 420.1,209.1 "/>
<path class="st2" d="M442.4,223.6c0-4.1,1.5-7.7,4.5-10.6c3-3,6.6-4.4,10.9-4.4c4.2,0,7.8,1.5,10.8,4.5c3,3,4.5,6.6,4.5,10.8
	c0,4.2-1.5,7.8-4.5,10.7c-3,2.9-6.7,4.4-11,4.4c-3.8,0-7.2-1.3-10.2-3.9C444.1,232.1,442.4,228.3,442.4,223.6 M446.9,223.7
	c0,3.2,1.1,5.9,3.3,8c2.2,2.1,4.7,3.1,7.5,3.1c3.1,0,5.7-1.1,7.8-3.2c2.1-2.1,3.2-4.8,3.2-7.9c0-3.1-1-5.7-3.1-7.9
	c-2.1-2.1-4.6-3.2-7.7-3.2c-3.1,0-5.6,1.1-7.7,3.2C447.9,218,446.9,220.6,446.9,223.7"/>
<polygon class="st2" points="490.6,225.8 481,209.1 486.1,209.1 492.8,220.8 499.5,209.1 504.6,209.1 495,225.8 495,238.4 
	490.6,238.4 "/>
<polygon class="st2" points="532.1,213.3 520.4,213.3 520.4,220.3 531.8,220.3 531.8,224.5 520.4,224.5 520.4,234.3 532.1,234.3 
	532.1,238.4 515.9,238.4 515.9,209.1 532.1,209.1 "/>
<polygon class="st2" points="562.1,213.3 550.3,213.3 550.3,220.3 561.7,220.3 561.7,224.5 550.3,224.5 550.3,234.3 562.1,234.3 
	562.1,238.4 545.9,238.4 545.9,209.1 562.1,209.1 "/>
<path class="st2" d="M591.8,213.5l-3.6,2.1c-0.7-1.2-1.3-1.9-1.9-2.3c-0.6-0.4-1.4-0.6-2.5-0.6c-1.2,0-2.2,0.3-3.1,1
	c-0.8,0.7-1.2,1.5-1.2,2.6c0,1.4,1.1,2.6,3.2,3.5l2.9,1.2c2.4,1,4.1,2.1,5.2,3.5c1.1,1.4,1.7,3.1,1.7,5.1c0,2.7-0.9,4.9-2.7,6.7
	c-1.8,1.8-4.1,2.7-6.7,2.7c-2.5,0-4.6-0.8-6.3-2.3c-1.6-1.5-2.7-3.6-3.1-6.4l4.5-1c0.2,1.7,0.6,2.9,1.1,3.6c0.9,1.3,2.2,1.9,4,1.9
	c1.4,0,2.5-0.5,3.4-1.4c0.9-0.9,1.4-2.1,1.4-3.5c0-0.6-0.1-1.1-0.2-1.6c-0.2-0.5-0.4-0.9-0.7-1.3c-0.3-0.4-0.8-0.8-1.3-1.1
	c-0.5-0.3-1.2-0.7-1.9-1l-2.8-1.2c-4-1.7-6-4.2-6-7.4c0-2.2,0.8-4,2.5-5.5c1.7-1.5,3.8-2.2,6.3-2.2
	C587.2,208.6,589.9,210.2,591.8,213.5"/>
<path class="st2" d="M635.3,225.9l9.1,12.5H639l-8.4-12h-0.8v12h-4.4v-29.3h5.2c3.9,0,6.7,0.7,8.4,2.2c1.9,1.6,2.8,3.8,2.8,6.4
	c0,2.1-0.6,3.9-1.8,5.3C638.9,224.6,637.3,225.5,635.3,225.9 M629.8,222.6h1.4c4.2,0,6.3-1.6,6.3-4.8c0-3-2-4.5-6.1-4.5h-1.6V222.6z
	"/>
<polygon class="st2" points="672.6,213.3 660.9,213.3 660.9,220.3 672.3,220.3 672.3,224.5 660.9,224.5 660.9,234.3 672.6,234.3 
	672.6,238.4 656.4,238.4 656.4,209.1 672.6,209.1 "/>
<polygon class="st2" points="695,213.3 695,238.4 690.5,238.4 690.5,213.3 683.8,213.3 683.8,209.1 701.7,209.1 701.7,213.3 "/>
<rect x="713.5" y="209.1" class="st2" width="4.4" height="29.3"/>
<path class="st2" d="M742.8,225.9l9.1,12.5h-5.4l-8.4-12h-0.8v12h-4.4v-29.3h5.2c3.9,0,6.7,0.7,8.4,2.2c1.9,1.6,2.8,3.8,2.8,6.4
	c0,2.1-0.6,3.9-1.8,5.3C746.3,224.6,744.7,225.5,742.8,225.9 M737.3,222.6h1.4c4.2,0,6.3-1.6,6.3-4.8c0-3-2-4.5-6.1-4.5h-1.6V222.6z
	"/>
<polygon class="st2" points="780,213.3 768.3,213.3 768.3,220.3 779.7,220.3 779.7,224.5 768.3,224.5 768.3,234.3 780,234.3 
	780,238.4 763.8,238.4 763.8,209.1 780,209.1 "/>
<polygon class="st2" points="792.2,238.4 798.4,206.9 808.5,229.7 818.9,206.9 824.5,238.4 819.9,238.4 817.1,220.7 808.4,239.8 
	800,220.7 796.8,238.4 "/>
<polygon class="st2" points="854.1,213.3 842.4,213.3 842.4,220.3 853.8,220.3 853.8,224.5 842.4,224.5 842.4,234.3 854.1,234.3 
	854.1,238.4 838,238.4 838,209.1 854.1,209.1 "/>
<polygon class="st2" points="867.9,238.4 867.9,207.1 889.3,229.5 889.3,209.1 893.7,209.1 893.7,240.2 872.4,217.9 872.4,238.4 "/>
<polygon class="st2" points="916.7,213.3 916.7,238.4 912.2,238.4 912.2,213.3 905.5,213.3 905.5,209.1 923.4,209.1 923.4,213.3 "/>
<polygon class="st2" points="963,213.3 963,238.4 958.6,238.4 958.6,213.3 951.8,213.3 951.8,209.1 969.7,209.1 969.7,213.3 "/>
<path class="st2" d="M991.4,225.9l9.1,12.5h-5.4l-8.4-12h-0.8v12h-4.4v-29.3h5.2c3.9,0,6.7,0.7,8.4,2.2c1.9,1.6,2.8,3.8,2.8,6.4
	c0,2.1-0.6,3.9-1.8,5.3C995,224.6,993.4,225.5,991.4,225.9 M985.9,222.6h1.4c4.2,0,6.3-1.6,6.3-4.8c0-3-2-4.5-6.1-4.5h-1.6V222.6z"
	/>
<path class="st2" d="M1016.5,209.1v17.6c0,2.5,0.4,4.4,1.2,5.5c1.2,1.7,3,2.5,5.2,2.5c2.2,0,4-0.8,5.2-2.5c0.8-1.1,1.2-3,1.2-5.5
	v-17.6h4.4V228c0,3.1-1,5.6-2.9,7.6c-2.2,2.2-4.8,3.3-8,3.3c-3.2,0-5.8-1.1-8-3.3c-1.9-2-2.9-4.5-2.9-7.6v-18.8H1016.5z"/>
<path class="st2" d="M1064.7,213.5l-3.6,2.1c-0.7-1.2-1.3-1.9-1.9-2.3c-0.6-0.4-1.4-0.6-2.4-0.6c-1.2,0-2.2,0.3-3.1,1
	c-0.8,0.7-1.2,1.5-1.2,2.6c0,1.4,1.1,2.6,3.2,3.5l2.9,1.2c2.4,1,4.1,2.1,5.2,3.5c1.1,1.4,1.7,3.1,1.7,5.1c0,2.7-0.9,4.9-2.7,6.7
	c-1.8,1.8-4.1,2.7-6.7,2.7c-2.5,0-4.6-0.8-6.3-2.3c-1.6-1.5-2.7-3.6-3.1-6.4l4.5-1c0.2,1.7,0.6,2.9,1.1,3.6c0.9,1.3,2.2,1.9,4,1.9
	c1.4,0,2.5-0.5,3.4-1.4c0.9-0.9,1.4-2.1,1.4-3.5c0-0.6-0.1-1.1-0.2-1.6c-0.2-0.5-0.4-0.9-0.7-1.3c-0.3-0.4-0.8-0.8-1.3-1.1
	c-0.5-0.3-1.2-0.7-1.9-1l-2.8-1.2c-4-1.7-6-4.2-6-7.4c0-2.2,0.8-4,2.5-5.5c1.7-1.5,3.8-2.2,6.3-2.2
	C1060.2,208.6,1062.8,210.2,1064.7,213.5"/>
<polygon class="st2" points="1087.2,213.3 1087.2,238.4 1082.7,238.4 1082.7,213.3 1076,213.3 1076,209.1 1093.9,209.1 
	1093.9,213.3 "/>
<rect x="316.9" y="182.7" class="st3" width="252.4" height="3.4"/>
<rect x="649.7" y="182.7" class="st3" width="439.2" height="3.4"/>
<polygon class="st3" points="123.3,71.8 100.7,81.4 123.3,103.5 "/>
<polygon class="st3" points="167.6,242.9 190.1,233.3 167.6,211.1 "/>
<polygon class="st3" points="70.2,111.2 61.1,134 92.7,133.7 "/>
<polygon class="st3" points="223.2,199.9 232.3,177.1 200.6,177.4 "/>
<polygon class="st3" points="59.7,176.6 69.3,199.1 91.5,176.6 "/>
<polygon class="st3" points="231.5,132.4 221.9,109.9 199.7,132.4 "/>
<polygon class="st3" points="99.6,232.8 122.4,241.9 122.1,210.3 "/>
<polygon class="st3" points="189.1,80.1 166.4,71 166.6,102.6 "/>
<path class="st2" d="M144.4,185.9c-4.3,0-8.3-0.9-12-2.4l-0.2,0.1l12.1,99.6l12.3-99.6l-0.2-0.1
	C152.7,185.1,148.7,185.9,144.4,185.9"/>
<path class="st2" d="M144.4,123.3c4,0,7.9,0.8,11.4,2.2l0.8-0.6l-12.1-99.6l-12.3,99.6l0.8,0.6C136.5,124.1,140.4,123.3,144.4,123.3
	"/>
<path class="st2" d="M175.8,154.6c0,4.1-0.8,7.9-2.2,11.5l0.3,0.4l99.8-12.1l-99.8-12.3l-0.4,0.6
	C174.9,146.4,175.8,150.4,175.8,154.6"/>
<path class="st2" d="M113,154.6c0-4.2,0.9-8.3,2.4-12l-0.4-0.6l-99.8,12.1l99.8,12.3l0.3-0.4C113.8,162.6,113,158.7,113,154.6"/>
<path class="st2" d="M173.1,142l0.7,0.1l47.8-64.5l-65,47.3l0.1,0.9C164,128.9,169.9,134.8,173.1,142"/>
<path class="st2" d="M156.7,125.8l-0.1-0.9l-0.8,0.6C156.1,125.6,156.4,125.7,156.7,125.8"/>
<path class="st2" d="M173.4,142.7l0.4-0.6l-0.7-0.1C173.2,142.2,173.3,142.4,173.4,142.7"/>
<path class="st2" d="M115.4,166.5l-0.4-0.1l-48.9,66.4l66.1-49.2l0-0.2C124.6,180.3,118.5,174.1,115.4,166.5"/>
<path class="st2" d="M132.1,183.5l0,0.2l0.2-0.1C132.3,183.5,132.2,183.5,132.1,183.5"/>
<path class="st2" d="M115.2,166.1l-0.3,0.4l0.4,0.1C115.3,166.4,115.3,166.3,115.2,166.1"/>
<path class="st2" d="M132.1,125.8l0.1-0.9l-64-47.3l46.8,64.5l0.7-0.1C118.9,134.8,124.8,128.9,132.1,125.8"/>
<path class="st2" d="M133,125.5l-0.8-0.6l-0.1,0.9C132.4,125.7,132.7,125.6,133,125.5"/>
<path class="st2" d="M115.7,142l-0.7,0.1l0.4,0.6C115.5,142.4,115.6,142.2,115.7,142"/>
<path class="st2" d="M173.4,166.5c-3.1,7.6-9.2,13.7-16.8,16.9l0,0.2l65.7,49.2l-48.5-66.4L173.4,166.5z"/>
<path class="st2" d="M156.4,183.5l0.2,0.1l0-0.2C156.6,183.5,156.5,183.5,156.4,183.5"/>
<path class="st2" d="M173.4,166.5l0.4,0l-0.3-0.4C173.5,166.3,173.5,166.4,173.4,166.5"/>
<path class="st3" d="M144.4,177.2c-12.4,0-22.6-10.1-22.6-22.5c0-12.4,10.1-22.5,22.6-22.5c12.4,0,22.6,10.1,22.6,22.5
	C167,167,156.8,177.2,144.4,177.2 M144.4,136.7c-9.9,0-18,8.1-18,18c0,9.9,8.1,18,18,18c9.9,0,18-8.1,18-18
	C162.4,144.7,154.3,136.7,144.4,136.7"/>
</svg>
